<?xml version="1.0" encoding="UTF-8"?>
<svg width="48px" height="32px" viewBox="0 0 48 32" version="1.1" xmlns="http://www.w3.org/2000/svg" xmlns:xlink="http://www.w3.org/1999/xlink">
    <title>编组备份 2</title>
    <defs>
        <linearGradient x1="1.14491749e-14%" y1="27.7777778%" x2="100%" y2="72.2222222%" id="linearGradient-1">
            <stop stop-color="#46A3FF" offset="0%"></stop>
            <stop stop-color="#3480F6" offset="100%"></stop>
        </linearGradient>
        <linearGradient x1="4.27071767%" y1="-1.16226473e-14%" x2="95.7292823%" y2="100%" id="linearGradient-2">
            <stop stop-color="#1890FF" offset="0%"></stop>
            <stop stop-color="#006EFF" offset="100%"></stop>
        </linearGradient>
    </defs>
    <g id="页面-1" stroke="none" stroke-width="1" fill="none" fill-rule="evenodd">
        <g id="资金预算预测" transform="translate(-28.000000, -20.000000)">
            <g id="编组-6" transform="translate(28.000000, 17.000000)">
                <g id="编组备份-2" transform="translate(0.000000, 3.000000)">
                    <path d="M23.7623762,0 C29.6628305,0 34.6820633,3.68182366 36.5391213,8.81961329 C42.9062184,9.03469456 48,14.1397562 48,20.4057971 C48,26.8090985 42.6806109,32 36.1188119,32 L34.6930693,32 L34.6930693,18.5507246 L23.4059406,11.3623188 L13.3069307,19.4782609 L13.3069307,32 L10.6930693,32 C4.77687744,31.9375191 0,27.2377724 0,21.4492754 C0,15.7484593 4.63325853,11.1036597 10.4255744,10.9051598 C11.5439549,4.70864155 17.0896736,0 23.7623762,0 Z" id="形状结合" fill="url(#linearGradient-1)"></path>
                    <path d="M23.2062589,13.9487179 L32.4210526,19.661149 L32.4210526,32 L30.5547653,32 L30.5547653,21.2606297 L28.9217639,20.3466407 L28.9217639,32 L27.2887624,32 L27.2887624,19.4326517 L25.655761,18.5186628 L25.655761,32 L23.0896159,32 L23.0896159,16.1194417 L15.1578947,22.6316131 L15.1578947,20.8036352 L23.2062589,13.9487179 Z M16.7908962,23.0886076 L16.7908962,32 L15.1578947,32 L15.1578947,24.459591 L16.7908962,23.0886076 Z M19.3570413,21.2606297 L19.3570413,32 L17.7240398,32 L17.7240398,22.6316131 L19.3570413,21.2606297 Z M21.9231863,19.2041545 L21.9231863,32 L20.2901849,32 L20.2901849,20.5751379 L21.9231863,19.2041545 Z" id="形状结合" fill="url(#linearGradient-2)"></path>
                </g>
            </g>
        </g>
    </g>
</svg>