<?xml version="1.0" encoding="UTF-8"?>
<svg width="192px" height="192px" viewBox="0 0 192 192" version="1.1" xmlns="http://www.w3.org/2000/svg" xmlns:xlink="http://www.w3.org/1999/xlink">
    <title>CCPS Logo</title>
    <defs>
        <linearGradient x1="1.14491749e-14%" y1="27.7777778%" x2="100%" y2="72.2222222%" id="linearGradient-1">
            <stop stop-color="#46A3FF" offset="0%"></stop>
            <stop stop-color="#3480F6" offset="100%"></stop>
        </linearGradient>
        <linearGradient x1="4.27071767%" y1="-1.16226473e-14%" x2="95.7292823%" y2="100%" id="linearGradient-2">
            <stop stop-color="#1890FF" offset="0%"></stop>
            <stop stop-color="#006EFF" offset="100%"></stop>
        </linearGradient>
    </defs>
    <g id="icon" transform="translate(24,28) scale(3,3)">
    <path d="M23.7623762,0 C29.6628305,0 34.6820633,3.68182366 36.5391213,8.81961329 C42.9062184,9.03469456 48,14.1397562 48,20.4057971 C48,26.8090985 42.6806109,32 36.1188119,32 L34.6930693,32 L34.6930693,18.5507246 L23.4059406,11.3623188 L13.3069307,19.4782609 L13.3069307,32 L10.6930693,32 C4.77687744,31.9375191 0,27.2377724 0,21.4492754 C0,15.7484593 4.63325853,11.1036597 10.4255744,10.9051598 C11.5439549,4.70864155 17.0896736,0 23.7623762,0 Z" fill="url(#linearGradient-1)"></path>
    <path d="M23.2062589,13.9487179 L32.4210526,19.661149 L32.4210526,32 L30.5547653,32 L30.5547653,21.2606297 L28.9217639,20.3466407 L28.9217639,32 L27.2887624,32 L27.2887624,19.4326517 L25.655761,18.5186628 L25.655761,32 L23.0896159,32 L23.0896159,16.1194417 L15.1578947,22.6316131 L15.1578947,20.8036352 L23.2062589,13.9487179 Z M16.7908962,23.0886076 L16.7908962,32 L15.1578947,32 L15.1578947,24.459591 L16.7908962,23.0886076 Z M19.3570413,21.2606297 L19.3570413,32 L17.7240398,32 L17.7240398,22.6316131 L19.3570413,21.2606297 Z M21.9231863,19.2041545 L21.9231863,32 L20.2901849,32 L20.2901849,20.5751379 L21.9231863,19.2041545 Z" fill="url(#linearGradient-2)"></path>
    </g>
    <g id="ccps-text" transform="translate(38.000,168.000) scale(0.019761,-0.019761)">
        <path d="M1087 539 1374 448Q1308 208 1154.5 91.5Q1001 -25 765 -25Q473 -25 285.0 174.5Q97 374 97 720Q97 1086 286.0 1288.5Q475 1491 783 1491Q1052 1491 1220 1332Q1320 1238 1370 1062L1077 992Q1051 1106 968.5 1172.0Q886 1238 768 1238Q605 1238 503.5 1121.0Q402 1004 402 742Q402 464 502.0 346.0Q602 228 762 228Q880 228 965.0 303.0Q1050 378 1087 539Z M2626 539 2913 448Q2847 208 2693.5 91.5Q2540 -25 2304 -25Q2012 -25 1824.0 174.5Q1636 374 1636 720Q1636 1086 1825.0 1288.5Q2014 1491 2322 1491Q2591 1491 2759 1332Q2859 1238 2909 1062L2616 992Q2590 1106 2507.5 1172.0Q2425 1238 2307 1238Q2144 1238 2042.5 1121.0Q1941 1004 1941 742Q1941 464 2041.0 346.0Q2141 228 2301 228Q2419 228 2504.0 303.0Q2589 378 2626 539Z M3227 0V1466H3702Q3972 1466 4054 1444Q4180 1411 4265.0 1300.5Q4350 1190 4350 1015Q4350 880 4301.0 788.0Q4252 696 4176.5 643.5Q4101 591 4023 574Q3917 553 3716 553H3523V0ZM3523 1218V802H3685Q3860 802 3919.0 825.0Q3978 848 4011.5 897.0Q4045 946 4045 1011Q4045 1091 3998.0 1143.0Q3951 1195 3879 1208Q3826 1218 3666 1218Z M4578 477 4866 505Q4892 360 4971.5 292.0Q5051 224 5186 224Q5329 224 5401.5 284.5Q5474 345 5474 426Q5474 478 5443.5 514.5Q5413 551 5337 578Q5285 596 5100 642Q4862 701 4766 787Q4631 908 4631 1082Q4631 1194 4694.5 1291.5Q4758 1389 4877.5 1440.0Q4997 1491 5166 1491Q5442 1491 5581.5 1370.0Q5721 1249 5728 1047L5432 1034Q5413 1147 5350.5 1196.5Q5288 1246 5163 1246Q5034 1246 4961 1193Q4914 1159 4914 1102Q4914 1050 4958 1013Q5014 966 5230.0 915.0Q5446 864 5549.5 809.5Q5653 755 5711.5 660.5Q5770 566 5770 427Q5770 301 5700.0 191.0Q5630 81 5502.0 27.5Q5374 -26 5183 -26Q4905 -26 4756.0 102.5Q4607 231 4578 477Z" fill="#3289F3"></path>
    </g>
</svg>
